HIERARCHY
ROOT hip
{
  OFFSET 60.5226 85.4839 -24.0555
  CHANNELS 6 Xposition Yposition Zposition Zrotation Xrotation Yrotation
  JOINT abdomen
  {
    OFFSET 0 20.6881 -0.73152
    CHANNELS 3 Zrotation Xrotation Yrotation
    JOINT chest
    {
      OFFSET 0 11.7043 -0.48768
      CHANNELS 3 Zrotation Xrotation Yrotation
      JOINT neck
      {
        OFFSET 0 22.1894 -2.19456
        CHANNELS 3 Zrotation Xrotation Yrotation
        JOINT head
        {
          OFFSET -0.24384 7.07133 1.2192
          CHANNELS 3 Zrotation Xrotation Yrotation
          JOINT leftEye
          {
            OFFSET 4.14528 8.04674 8.04672
            CHANNELS 3 Zrotation Xrotation Yrotation
            End Site
            {
              OFFSET 1 0 0
            }
          }
          JOINT rightEye
          {
            OFFSET -3.6576 8.04674 8.04672
            CHANNELS 3 Zrotation Xrotation Yrotation
            End Site
            {
              OFFSET 1 0 0
            }
          }
        }
      }
      JOINT rCollar
      {
        OFFSET -2.68224 19.2634 -4.8768
        CHANNELS 3 Zrotation Xrotation Yrotation
        JOINT rShldr
        {
          OFFSET -8.77824 -1.95073 1.46304
          CHANNELS 3 Zrotation Xrotation Yrotation
          JOINT rForeArm
          {
            OFFSET -28.1742 -1.7115 0.48768
            CHANNELS 3 Zrotation Xrotation Yrotation
            JOINT rHand
            {
              OFFSET -22.5879 0.773209 7.07136
              CHANNELS 3 Zrotation Xrotation Yrotation
              JOINT rThumb1
              {
                OFFSET -1.2192 -0.487915 3.41376
                CHANNELS 3 Zrotation Xrotation Yrotation
                JOINT rThumb2
                {
                  OFFSET -3.37035 -0.52449 3.41376
                  CHANNELS 3 Zrotation Xrotation Yrotation
                  End Site
                  {
                    OFFSET -1.78271 -1.18214 1.43049
                  }
                }
              }
              JOINT rIndex1
              {
                OFFSET -7.75947 0.938293 5.60832
                CHANNELS 3 Zrotation Xrotation Yrotation
                JOINT rIndex2
                {
                  OFFSET -2.54057 -0.884171 1.56538
                  CHANNELS 3 Zrotation Xrotation Yrotation
                  End Site
                  {
                    OFFSET -1.62519 -0.234802 1.16502
                  }
                }
              }
              JOINT rMid1
              {
                OFFSET -8.24714 1.18213 3.41376
                CHANNELS 3 Zrotation Xrotation Yrotation
                JOINT rMid2
                {
                  OFFSET -3.10165 -0.590103 1.0647
                  CHANNELS 3 Zrotation Xrotation Yrotation
                  End Site
                  {
                    OFFSET -2.48547 -0.328903 0.83742
                  }
                }
              }
              JOINT rRing1
              {
                OFFSET -8.82822 0.546677 1.51678
                CHANNELS 3 Zrotation Xrotation Yrotation
                JOINT rRing2
                {
                  OFFSET -2.60934 -0.819778 -0.0198488
                  CHANNELS 3 Zrotation Xrotation Yrotation
                  End Site
                  {
                    OFFSET -2.33842 -0.294052 0.168128
                  }
                }
              }
              JOINT rPinky1
              {
                OFFSET -8.27202 -0.0477905 -0.4584
                CHANNELS 3 Zrotation Xrotation Yrotation
                JOINT rPinky2
                {
                  OFFSET -1.82734 -0.647385 -0.700984
                  CHANNELS 3 Zrotation Xrotation Yrotation
                  End Site
                  {
                    OFFSET -1.69225 -0.51767 -0.607171
                  }
                }
              }
            }
          }
        }
      }
      JOINT lCollar
      {
        OFFSET 2.68224 19.2634 -4.8768
        CHANNELS 3 Zrotation Xrotation Yrotation
        JOINT lShldr
        {
          OFFSET 8.77824 -1.95073 1.46304
          CHANNELS 3 Zrotation Xrotation Yrotation
          JOINT lForeArm
          {
            OFFSET 28.1742 -1.7115 0.48768
            CHANNELS 3 Zrotation Xrotation Yrotation
            JOINT lHand
            {
              OFFSET 22.5879 0.773209 7.07136
              CHANNELS 3 Zrotation Xrotation Yrotation
              JOINT lThumb1
              {
                OFFSET 1.2192 -0.487915 3.41376
                CHANNELS 3 Zrotation Xrotation Yrotation
                JOINT lThumb2
                {
                  OFFSET 3.37035 -0.52449 3.41376
                  CHANNELS 3 Zrotation Xrotation Yrotation
                  End Site
                  {
                    OFFSET 1.78271 -1.18214 1.43049
                  }
                }
              }
              JOINT lIndex1
              {
                OFFSET 7.75947 0.938293 5.60832
                CHANNELS 3 Zrotation Xrotation Yrotation
                JOINT lIndex2
                {
                  OFFSET 2.54057 -0.884171 1.56538
                  CHANNELS 3 Zrotation Xrotation Yrotation
                  End Site
                  {
                    OFFSET 1.62519 -0.234802 1.16502
                  }
                }
              }
              JOINT lMid1
              {
                OFFSET 8.24714 1.18213 3.41376
                CHANNELS 3 Zrotation Xrotation Yrotation
                JOINT lMid2
                {
                  OFFSET 3.10165 -0.590103 1.0647
                  CHANNELS 3 Zrotation Xrotation Yrotation
                  End Site
                  {
                    OFFSET 2.48547 -0.328903 0.83742
                  }
                }
              }
              JOINT lRing1
              {
                OFFSET 8.82822 0.546677 1.51678
                CHANNELS 3 Zrotation Xrotation Yrotation
                JOINT lRing2
                {
                  OFFSET 2.60934 -0.819778 -0.0198488
                  CHANNELS 3 Zrotation Xrotation Yrotation
                  End Site
                  {
                    OFFSET 2.33842 -0.294052 0.168128
                  }
                }
              }
              JOINT lPinky1
              {
                OFFSET 8.27202 -0.0477905 -0.4584
                CHANNELS 3 Zrotation Xrotation Yrotation
                JOINT lPinky2
                {
                  OFFSET 1.82734 -0.647385 -0.700984
                  CHANNELS 3 Zrotation Xrotation Yrotation
                  End Site
                  {
                    OFFSET 1.69225 -0.51767 -0.607171
                  }
                }
              }
            }
          }
        }
      }
    }
  }
  JOINT rButtock
  {
    OFFSET -8.77824 4.35084 1.2192
    CHANNELS 3 Zrotation Xrotation Yrotation
    JOINT rThigh
    {
      OFFSET 0 -1.70687 -2.19456
      CHANNELS 3 Zrotation Xrotation Yrotation
      JOINT rShin
      {
        OFFSET 0 -36.8199 0.73152
        CHANNELS 3 Zrotation Xrotation Yrotation
        JOINT rFoot
        {
          OFFSET 0.73152 -45.1104 -5.12064
          CHANNELS 3 Zrotation Xrotation Yrotation
          End Site
          {
            OFFSET -1.1221 -3.69964 12.103
          }
        }
      }
    }
  }
  JOINT lButtock
  {
    OFFSET 8.77824 4.35084 1.2192
    CHANNELS 3 Zrotation Xrotation Yrotation
    JOINT lThigh
    {
      OFFSET 0 -1.70687 -2.19456
      CHANNELS 3 Zrotation Xrotation Yrotation
      JOINT lShin
      {
        OFFSET 0 -36.8199 0.73152
        CHANNELS 3 Zrotation Xrotation Yrotation
        JOINT lFoot
        {
          OFFSET -0.73152 -45.1104 -5.12064
          CHANNELS 3 Zrotation Xrotation Yrotation
          End Site
          {
            OFFSET 1.1221 -3.69964 12.103
          }
        }
      }
    }
  }
}
MOTION
Frames:	5
Frame Time:	0.00833333
57.5473 85.415 275.198 -1.27367 0.00383558 0.0239686 1.67538 -0.00249551 0.0455947 0.461931 0.00238715 0.0799909 6.64701e-014 -7.95139e-016 -7.45443e-017 1.99642e-013 3.18055e-015 -2.50034e-016 -0 0 0 -0 0 0 3.32461e-014 -6.36732e-017 9.93923e-017 7.01511e-013 -1.04983e-015 1.98785e-015 1.20601e-011 -3.64193e-012 -1.30403e-013 1.37856e-010 3.37236e-012 1.27222e-014 3.25212e-010 -5.90546e-013 -2.8943e-013 5.61618e-010 -1.02096e-012 -5.14455e-013 3.25215e-010 -5.9039e-013 -2.98972e-013 7.73091 5.47488 0.417314 3.25213e-010 -5.90589e-013 -2.8943e-013 2.90554 0.965183 0.102902 3.25224e-010 -5.9039e-013 -2.91816e-013 10.2786 0.731801 0.0259123 3.25206e-010 -5.88403e-013 -2.8625e-013 2.22167 -0.733487 -0.20892 3.31501e-014 -6.3285e-017 -1.98785e-016 6.97948e-013 -1.37286e-015 3.97569e-016 1.20309e-011 3.56322e-012 -1.43125e-013 1.37868e-010 -3.85163e-012 1.90833e-014 3.25181e-010 -6.24236e-013 -3.08514e-013 5.61577e-010 -1.07821e-012 -5.20021e-013 3.25174e-010 -6.20606e-013 -2.98972e-013 -7.73091 5.47488 -0.417314 3.25182e-010 -6.23886e-013 -3.02153e-013 -2.90554 0.965183 -0.102902 3.25174e-010 -6.23886e-013 -2.99767e-013 -10.2786 0.731801 -0.0259123 3.25181e-010 -6.25774e-013 -3.08514e-013 -2.22167 -0.733487 0.20892 -2.03217e-016 0 -3.88251e-019 1.77111 -6.79374 -0.168011 0.00306188 6.7421 0.0830297 -0.520285 0.046556 0.0600277 2.03217e-016 0 3.88251e-019 0.77774 -1.92427 0.00416005 0.00908747 -2.07858 0.0749497 0.493407 3.99766 -0.137547 
54.8846 83.0759 270.469 -2.26056 6.76951 38.5595 3.67661 2.11666 -0.248541 2.63133 -0.700502 0.00085038 -1.6725 4.21401 -2.30158 4.45015 -7.99902 -3.51944 -0 0 0 -0 0 0 -7.26205e-015 1.37463e-013 -1.66186e-013 1.22457 -1.03326 -0.91699 -4.80654 -2.31493 7.35994 0.000419784 0.672706 0.0945272 -1.4955e-009 4.03156e-009 -3.88887e-010 -2.58834e-009 6.95714e-009 -6.63756e-010 -1.4955e-009 4.03156e-009 -3.88894e-010 7.73091 5.47488 0.417314 -1.4955e-009 4.03156e-009 -3.88886e-010 2.90554 0.965183 0.102902 -1.49549e-009 4.03156e-009 -3.88887e-010 10.2786 0.731801 0.0259123 -1.49551e-009 4.03156e-009 -3.88879e-010 2.22167 -0.733487 -0.20892 -7.32737e-015 1.37464e-013 -1.66483e-013 12.1679 -8.74082 -3.71906 17.1021 -14.5674 -14.975 -0.00454353 -1.49537 0.209902 -5.19031e-011 -1.03018e-008 1.30716e-009 -9.38442e-011 -1.77701e-008 2.25451e-009 -5.19085e-011 -1.03018e-008 1.30717e-009 -7.73091 5.47488 -0.417314 -5.19023e-011 -1.03017e-008 1.30717e-009 -2.90554 0.965183 -0.102902 -5.19106e-011 -1.03018e-008 1.30717e-009 -10.2786 0.731801 -0.0259123 -5.19008e-011 -1.03018e-008 1.30716e-009 -2.22167 -0.733487 0.20892 -2.03217e-016 0 -3.88251e-019 -2.09495 -19.4247 -2.3002 -0.0297486 17.4608 0.22027 -1.46839 -4.42074 -5.58574 2.03217e-016 0 3.88251e-019 -1.12943 -6.12473 1.63449 -0.00260968 5.62319 -0.05631 1.21908 0.00552151 7.13272 
54.9335 83.1446 269.97 -9.66372 3.4382 79.1347 5.79312 4.32651 -0.551969 4.92584 -1.456 -0.0792683 -3.08639 8.6785 -4.72125 8.02474 -16.3237 -7.37698 -0 0 0 -0 0 0 -5.7038e-014 2.85028e-013 -3.39953e-013 2.517 -2.02637 -1.95761 -9.25414 -4.64053 15.1901 -0.00193066 1.44102 0.202541 -3.55268e-009 8.45325e-009 -7.46042e-010 -6.14734e-009 1.45873e-008 -1.2717e-009 -3.55268e-009 8.45325e-009 -7.46047e-010 7.73091 5.47488 0.417314 -3.55268e-009 8.45325e-009 -7.46042e-010 2.90554 0.965183 0.102902 -3.55268e-009 8.45325e-009 -7.46039e-010 10.2786 0.731801 0.0259123 -3.55269e-009 8.45325e-009 -7.4603e-010 2.22167 -0.733487 -0.20892 -5.70682e-014 2.85031e-013 -3.40248e-013 23.7152 -17.8514 -7.96802 26.5337 -26.5962 -33.7672 0.00257951 -3.07412 0.431993 -4.36751e-010 -2.18465e-008 2.76028e-009 -7.63205e-010 -3.76844e-008 4.76077e-009 -4.36755e-010 -2.18465e-008 2.7603e-009 -7.73091 5.47488 -0.417314 -4.36751e-010 -2.18465e-008 2.76029e-009 -2.90554 0.965183 -0.102902 -4.36759e-010 -2.18465e-008 2.76029e-009 -10.2786 0.731801 -0.0259123 -4.36747e-010 -2.18465e-008 2.76029e-009 -2.22167 -0.733487 0.20892 -2.03217e-016 0 -3.88251e-019 -7.35629 -32.6617 -5.06526 -0.128262 28.7639 0.393095 -3.43355 -8.993 -11.6785 2.03217e-016 0 3.88251e-019 -2.86654 -10.5216 3.36752 0.0235028 13.7617 -0.201934 3.10899 -4.15825 14.907 
54.9624 83.2102 268.971 -11.9273 -10.5029 112.458 7.74468 6.35434 -0.841474 6.96429 -2.10627 -0.157537 -3.98343 12.5594 -7.05574 10.1932 -23.6181 -11.4236 -0 0 0 -0 0 0 -8.82784e-014 4.12515e-013 -4.98758e-013 3.57442 -3.09661 -2.75455 -12.6749 -6.48741 22.2114 -0.00540316 2.0181 0.283738 -5.13692e-009 1.20959e-008 -1.16608e-009 -8.88825e-009 2.08735e-008 -1.99024e-009 -5.13692e-009 1.20959e-008 -1.16608e-009 7.73091 5.47488 0.417314 -5.13692e-009 1.20959e-008 -1.16608e-009 2.90554 0.965183 0.102902 -5.13692e-009 1.20959e-008 -1.16608e-009 10.2786 0.731801 0.0259123 -5.13693e-009 1.20959e-008 -1.16607e-009 2.22167 -0.733487 -0.20892 -8.82824e-014 4.12518e-013 -4.99052e-013 32.8066 -25.7558 -12.2617 28.1775 -30.9891 -53.3413 0.0193244 -4.48588 0.631427 -8.06071e-010 -3.0904e-008 3.9221e-009 -1.40469e-009 -5.33081e-008 6.76456e-009 -8.06073e-010 -3.0904e-008 3.92212e-009 -7.73091 5.47488 -0.417314 -8.0607e-010 -3.0904e-008 3.92211e-009 -2.90554 0.965183 -0.102902 -8.06079e-010 -3.0904e-008 3.92211e-009 -10.2786 0.731801 -0.0259123 -8.06065e-010 -3.0904e-008 3.9221e-009 -2.22167 -0.733487 0.20892 -2.03217e-016 0 -3.88251e-019 -13.6521 -44.4018 -8.65772 -0.292129 38.8971 0.598058 -6.01976 -12.8338 -17.2718 2.03217e-016 0 3.88251e-019 -4.20679 -14.4795 5.02723 0.0850869 21.0264 -0.340597 5.65476 -7.41134 21.8645 
54.9991 83.3524 268.426 -6.83347 -23.949 135.296 9.24229 7.92759 -1.09236 8.36645 -2.4935 -0.231076 -4.30038 15.0524 -9.03579 10.9808 -28.6422 -15.1895 -0 0 0 -0 0 0 -7.31801e-014 4.89805e-013 -6.20158e-013 4.11641 -4.3633 -2.93967 -14.7538 -7.57913 27.0836 -0.00550019 2.11708 0.297674 -5.53881e-009 1.37908e-008 -1.74333e-009 -9.58393e-009 2.37995e-008 -2.98529e-009 -5.53881e-009 1.37908e-008 -1.74333e-009 7.73091 5.47488 0.417314 -5.53881e-009 1.37908e-008 -1.74333e-009 2.90554 0.965183 0.102902 -5.53881e-009 1.37908e-008 -1.74332e-009 10.2786 0.731801 0.0259123 -5.53882e-009 1.37908e-008 -1.74331e-009 2.22167 -0.733487 -0.20892 -7.31799e-014 4.89806e-013 -6.20457e-013 38.4982 -31.0978 -15.6087 27.7778 -29.4206 -66.3249 0.0369785 -5.48037 0.772597 -1.13657e-009 -3.37437e-008 4.35564e-009 -1.97647e-009 -5.82054e-008 7.51215e-009 -1.13657e-009 -3.37437e-008 4.35566e-009 -7.73091 5.47488 -0.417314 -1.13657e-009 -3.37437e-008 4.35565e-009 -2.90554 0.965183 -0.102902 -1.13658e-009 -3.37437e-008 4.35565e-009 -10.2786 0.731801 -0.0259123 -1.13656e-009 -3.37437e-008 4.35565e-009 -2.22167 -0.733487 0.20892 -2.03217e-016 0 -3.88251e-019 -19.7874 -52.6264 -12.6343 -0.473233 46.1065 0.796595 -8.27707 -15.3475 -21.2394 2.03217e-016 0 3.88251e-019 -5.05065 -17.3782 6.39304 0.152882 26.1067 -0.438659 7.62178 -9.03381 26.5117 
